<svg width="25" height="35" viewBox="0 0 25 35" fill="none" xmlns="http://www.w3.org/2000/svg">
<path d="M12.5 2.5C13.7361 2.5 14.9445 2.86656 15.9723 3.55331C17.0001 4.24007 17.8012 5.21619 18.2742 6.35823C18.7473 7.50027 18.8711 8.75693 18.6299 9.96931C18.3888 11.1817 17.7935 12.2953 16.9194 13.1694C16.0453 14.0435 14.9317 14.6388 13.7193 14.8799C12.5069 15.1211 11.2503 14.9973 10.1082 14.5242C8.96619 14.0512 7.99007 13.2501 7.30332 12.2223C6.61656 11.1945 6.25 9.98613 6.25 8.75C6.25 7.0924 6.90848 5.50269 8.08058 4.33058C9.25269 3.15848 10.8424 2.5 12.5 2.5ZM12.5 0C10.7694 0 9.07769 0.513179 7.63876 1.47464C6.19983 2.4361 5.07832 3.80267 4.41605 5.40152C3.75379 7.00037 3.58051 8.75971 3.91813 10.457C4.25575 12.1544 5.08911 13.7135 6.31282 14.9372C7.53653 16.1609 9.09563 16.9943 10.793 17.3319C12.4903 17.6695 14.2496 17.4962 15.8485 16.8339C17.4473 16.1717 18.8139 15.0502 19.7754 13.6112C20.7368 12.1723 21.25 10.4806 21.25 8.75C21.25 6.42936 20.3281 4.20376 18.6872 2.56282C17.0462 0.921872 14.8206 0 12.5 0ZM25 35H22.5V28.75C22.5 27.9292 22.3383 27.1165 22.0242 26.3582C21.7102 25.5999 21.2498 24.9109 20.6694 24.3306C20.0891 23.7502 19.4001 23.2898 18.6418 22.9758C17.8835 22.6617 17.0708 22.5 16.25 22.5H8.75C7.0924 22.5 5.50269 23.1585 4.33058 24.3306C3.15848 25.5027 2.5 27.0924 2.5 28.75V35H0V28.75C0 26.4294 0.921873 24.2038 2.56282 22.5628C4.20376 20.9219 6.42936 20 8.75 20H16.25C18.5706 20 20.7962 20.9219 22.4372 22.5628C24.0781 24.2038 25 26.4294 25 28.75V35Z" fill="#FFD966"/>
</svg>
