<svg width="36" height="37" viewBox="0 0 36 37" fill="none" xmlns="http://www.w3.org/2000/svg">
<path d="M11.0198 25.9196L34 2.80057M11.0198 25.9196C11.5834 26.4559 12.0344 27.1004 12.3461 27.815C12.6578 28.5296 12.824 29.2998 12.8348 30.0802C12.8456 30.8605 12.7008 31.6351 12.4089 32.3582C12.117 33.0812 11.684 33.7381 11.1355 34.2899C10.587 34.8417 9.93411 35.2773 9.21539 35.571C8.49667 35.8646 7.72674 36.0103 6.95109 35.9994C6.17545 35.9886 5.40984 35.8214 4.69952 35.5078C3.9892 35.1942 3.34858 34.7405 2.81553 34.1735C1.79039 33.0667 1.23229 31.6028 1.25882 30.0902C1.28535 28.5776 1.89443 27.1344 2.95774 26.0646C4.02105 24.9949 5.45558 24.3821 6.9591 24.3554C8.46261 24.3288 9.91773 24.8902 11.0179 25.9216L11.0198 25.9196ZM24.3274 24.2089L34 33.94M11.0198 10.8209C10.4868 11.3879 9.84616 11.8416 9.13584 12.1552C8.42551 12.4688 7.65991 12.636 6.88426 12.6468C6.10862 12.6577 5.33869 12.512 4.61997 12.2184C3.90125 11.9247 3.24834 11.4891 2.69982 10.9373C2.15131 10.3855 1.71832 9.72862 1.42646 9.00556C1.13459 8.2825 0.989775 7.50792 1.00056 6.72759C1.01135 5.94726 1.17752 5.17702 1.48926 4.4624C1.801 3.74779 2.25197 3.1033 2.81553 2.56703C3.91569 1.53569 5.37081 0.974221 6.87433 1.00091C8.37784 1.0276 9.81237 1.64036 10.8757 2.7101C11.939 3.77984 12.5481 5.22303 12.5746 6.73564C12.6011 8.24824 12.043 9.71215 11.0179 10.819L11.0198 10.8209ZM11.0198 10.8209L18.5238 18.3703" stroke="#FFD966" stroke-width="2" stroke-linecap="square"/>
</svg>
