<svg width="35" height="35" viewBox="0 0 35 35" fill="none" xmlns="http://www.w3.org/2000/svg">
<path d="M32.2778 35L20.0278 22.75C19.0556 23.5278 17.9375 24.1435 16.6736 24.5972C15.4097 25.0509 14.0648 25.2778 12.6389 25.2778C9.10648 25.2778 6.11722 24.0541 3.67111 21.6067C1.225 19.1593 0.00129733 16.17 1.02881e-06 12.6389C-0.00129527 9.10778 1.22241 6.11852 3.67111 3.67111C6.11982 1.2237 9.10907 0 12.6389 0C16.1687 0 19.1586 1.2237 21.6086 3.67111C24.0586 6.11852 25.2817 9.10778 25.2778 12.6389C25.2778 14.0648 25.0509 15.4097 24.5972 16.6736C24.1435 17.9375 23.5278 19.0556 22.75 20.0278L35 32.2778L32.2778 35ZM12.6389 21.3889C15.0694 21.3889 17.1357 20.5385 18.8378 18.8378C20.5398 17.137 21.3902 15.0707 21.3889 12.6389C21.3876 10.207 20.5372 8.14139 18.8378 6.44194C17.1383 4.7425 15.072 3.89148 12.6389 3.88889C10.2057 3.8863 8.14009 4.73732 6.44195 6.44194C4.7438 8.14657 3.89278 10.2122 3.88889 12.6389C3.885 15.0656 4.73602 17.1319 6.44195 18.8378C8.14787 20.5437 10.2135 21.3941 12.6389 21.3889Z" fill="#F0C238"/>
</svg>
