<svg width="30" height="30" viewBox="0 0 30 30" fill="none" xmlns="http://www.w3.org/2000/svg">
<path d="M25.5 1.5L16.5 10.5L19.5 13.5L30 3V1.5M15 15.75C14.8011 15.75 14.6103 15.671 14.4697 15.5303C14.329 15.3897 14.25 15.1989 14.25 15C14.25 14.8011 14.329 14.6103 14.4697 14.4697C14.6103 14.329 14.8011 14.25 15 14.25C15.1989 14.25 15.3897 14.329 15.5303 14.4697C15.671 14.6103 15.75 14.8011 15.75 15C15.75 15.1989 15.671 15.3897 15.5303 15.5303C15.3897 15.671 15.1989 15.75 15 15.75ZM6 27C5.20435 27 4.44129 26.6839 3.87868 26.1213C3.31607 25.5587 3 24.7956 3 24C3 23.2044 3.31607 22.4413 3.87868 21.8787C4.44129 21.3161 5.20435 21 6 21C6.79565 21 7.55871 21.3161 8.12132 21.8787C8.68393 22.4413 9 23.2044 9 24C9 24.7956 8.68393 25.5587 8.12132 26.1213C7.55871 26.6839 6.79565 27 6 27ZM6 9C5.20435 9 4.44129 8.68393 3.87868 8.12132C3.31607 7.55871 3 6.79565 3 6C3 5.20435 3.31607 4.44129 3.87868 3.87868C4.44129 3.31607 5.20435 3 6 3C6.79565 3 7.55871 3.31607 8.12132 3.87868C8.68393 4.44129 9 5.20435 9 6C9 6.79565 8.68393 7.55871 8.12132 8.12132C7.55871 8.68393 6.79565 9 6 9ZM11.46 8.46C11.805 7.71 12 6.885 12 6C12 4.4087 11.3679 2.88258 10.2426 1.75736C9.11742 0.632141 7.5913 0 6 0C4.4087 0 2.88258 0.632141 1.75736 1.75736C0.632141 2.88258 0 4.4087 0 6C0 7.5913 0.632141 9.11742 1.75736 10.2426C2.88258 11.3679 4.4087 12 6 12C6.885 12 7.71 11.805 8.46 11.46L12 15L8.46 18.54C7.71 18.195 6.885 18 6 18C4.4087 18 2.88258 18.6321 1.75736 19.7574C0.632141 20.8826 0 22.4087 0 24C0 25.5913 0.632141 27.1174 1.75736 28.2426C2.88258 29.3679 4.4087 30 6 30C7.5913 30 9.11742 29.3679 10.2426 28.2426C11.3679 27.1174 12 25.5913 12 24C12 23.115 11.805 22.29 11.46 21.54L15 18L25.5 28.5H30V27L11.46 8.46Z" fill="#D6AD33"/>
</svg>
